<svg width="26" height="24" viewBox="0 0 26 24" fill="none" xmlns="http://www.w3.org/2000/svg">
<path d="M20.65 4.84559C20.2284 4.50371 19.7343 4.25605 19.2029 4.12017C18.6714 3.9843 18.1156 3.96355 17.575 4.0594L14.7085 4.56413C14.0467 4.68198 13.445 5.01216 13 5.5016C12.5539 5.01131 11.9504 4.68106 11.287 4.56413L8.425 4.0594C7.88437 3.96346 7.3286 3.98394 6.79703 4.11938C6.26547 4.25482 5.7711 4.50191 5.34892 4.84316C4.92675 5.1844 4.58709 5.61147 4.35399 6.09412C4.12088 6.57678 4.00004 7.10322 4 7.63618V15.4858C4.00004 16.3373 4.30823 17.1617 4.87085 17.8155C5.43347 18.4693 6.21483 18.9108 7.07875 19.0633L11.7932 19.8945C12.5912 20.0352 13.4088 20.0352 14.2067 19.8945L18.925 19.0633C19.7882 18.9101 20.5687 18.4682 21.1306 17.8145C21.6925 17.1608 22.0001 16.3367 22 15.4858V7.63618C22.0003 7.1034 21.8795 6.57711 21.6462 6.09477C21.4129 5.61243 21.0727 5.18591 20.65 4.84559ZM12.25 18.4931C12.187 18.4843 12.124 18.4742 12.061 18.4633L7.34725 17.6327C6.82882 17.5412 6.35995 17.2762 6.02237 16.8839C5.68479 16.4915 5.49992 15.9967 5.5 15.4858V7.63618C5.5 7.05751 5.73705 6.50255 6.15901 6.09338C6.58097 5.6842 7.15326 5.45433 7.75 5.45433C7.88582 5.45464 8.02134 5.46656 8.155 5.48996L11.02 5.99906C11.3647 6.06023 11.6765 6.2365 11.9011 6.49728C12.1258 6.75807 12.2492 7.0869 12.25 7.42672V18.4931ZM20.5 15.4858C20.5001 15.9967 20.3152 16.4915 19.9776 16.8839C19.6401 17.2762 19.1712 17.5412 18.6527 17.6327L13.939 18.4633C13.876 18.4742 13.813 18.4843 13.75 18.4931V7.42672C13.7499 7.08607 13.8732 6.7562 14.0982 6.49464C14.3233 6.23307 14.6359 6.0564 14.9815 5.99542L17.8472 5.48633C18.1718 5.42907 18.5053 5.44171 18.8243 5.52335C19.1432 5.605 19.4398 5.75365 19.6929 5.95877C19.946 6.1639 20.1495 6.42049 20.289 6.71036C20.4284 7.00023 20.5005 7.3163 20.5 7.63618V15.4858Z" fill="#002C4D" stroke="#002C4D" stroke-width="0.2"/>
</svg>
